# xmcd
#
# Track frame offsets:
#	150
#	10911
#	20459
#	31909
#	41656
#	50846
#	61056
#	72745
#	82839
#	91798
#	100640
#	110495
#	119696
#	130595
#	141408
#	149805
#	159481
#	169166
#	180189
#	189859
#
# Disc length: 2675 seconds
#
# Revision: 0
# Processed by: cddbd v1.5.2PL0 Copyright (c) Steve Scherf et al.
# Submitted via: EZCDAudioConverter 2.0.3.1
#
DISCID=0e0a7114
DTITLE=Country and Western Nuggets CD 10
DYEAR=1900
DGENRE=
TTITLE0=Jackson Stonewall - Sixteen Fathoms
TTITLE1=Rich Dave - Tuggin' At My Heart Strings
TTITLE2=Barnett Bob - Please Come Home
TTITLE3=Peters Jimmie - Rhythm Of Love
TTITLE4=King Pee Wee - Blue Suede Shoes
TTITLE5=Hawkins Hawkshaw - Waitin' For My Baby
TTITLE6=Penny Hank - Fan It
TTITLE7=Norris Bob - Yellow Pages
TTITLE8=Arnold Eddy - Hep Cat Baby
TTITLE9=Black Jack Wayne - Red Silk Stockings And Green Perfume
TTITLE10=Leatherwood Bill - Hillbilly Blues
TTITLE11=Johnnie and Jack - Move It On Over
TTITLE12=Smith Carl - Why Why
TTITLE13=Snow Hank - Music Makin' Mama From Memphis
TTITLE14=Rich Dave - Burn On Love
TTITLE15=King Pee Wee - Catty Town
TTITLE16=Snow Jimmie Rodgers - Milkcow Blues
TTITLE17=Stewart Wynn - Big Big Love
TTITLE18=Scott Marc and Dickie Threadway - Long Road To Nowhere
TTITLE19=Butler Larry - Another Heartache
EXTD=
EXTT0=
EXTT1=
EXTT2=
EXTT3=
EXTT4=
EXTT5=
EXTT6=
EXTT7=
EXTT8=
EXTT9=
EXTT10=
EXTT11=
EXTT12=
EXTT13=
EXTT14=
EXTT15=
EXTT16=
EXTT17=
EXTT18=
EXTT19=
PLAYORDER=
